HIERARCHY
ROOT Hips
{
  OFFSET 265.287 66.7526 -254.649
  CHANNELS 6 Xposition Yposition Zposition Zrotation Xrotation Yrotation
  JOINT LeftUpLeg
  {
    OFFSET 8.64259 1.95398 -2.38835
    CHANNELS 3 Zrotation Xrotation Yrotation
    JOINT LeftLeg
    {
      OFFSET 43.7702 0 0
      CHANNELS 3 Zrotation Xrotation Yrotation
      JOINT LeftFoot
      {
        OFFSET 40.6238 0 0
        CHANNELS 3 Zrotation Xrotation Yrotation
        JOINT LeftToeBase
        {
          OFFSET 12.7242 0 0
          CHANNELS 3 Zrotation Xrotation Yrotation
          End Site
          {
            OFFSET 0 0 0
          }
        }
      }
    }
  }
  JOINT RightUpLeg
  {
    OFFSET -8.2249 1.95398 -2.59336
    CHANNELS 3 Zrotation Xrotation Yrotation
    JOINT RightLeg
    {
      OFFSET 43.5653 0 0
      CHANNELS 3 Zrotation Xrotation Yrotation
      JOINT RightFoot
      {
        OFFSET 40.6238 0 0
        CHANNELS 3 Zrotation Xrotation Yrotation
        JOINT RightToeBase
        {
          OFFSET 12.7242 0 0
          CHANNELS 3 Zrotation Xrotation Yrotation
          End Site
          {
            OFFSET 0 0 0
          }
        }
      }
    }
  }
  JOINT Spine
  {
    OFFSET 0.165834 0.87714 6.61349
    CHANNELS 3 Zrotation Xrotation Yrotation
    JOINT Spine1
    {
      OFFSET 7.38963 1.71661e-005 0
      CHANNELS 3 Zrotation Xrotation Yrotation
      JOINT Spine2
      {
        OFFSET 11.9445 1.14441e-005 0
        CHANNELS 3 Zrotation Xrotation Yrotation
        JOINT Spine3
        {
          OFFSET 14.7254 4.19617e-005 0
          CHANNELS 3 Zrotation Xrotation Yrotation
          JOINT Spine4
          {
            OFFSET 10.9679 0 0
            CHANNELS 3 Zrotation Xrotation Yrotation
            JOINT RightShoulder
            {
              OFFSET 2.46616 -1.6653 3.69651
              CHANNELS 3 Zrotation Xrotation Yrotation
              JOINT RightArm
              {
                OFFSET 13.0012 0 0
                CHANNELS 3 Zrotation Xrotation Yrotation
                JOINT RightForeArm
                {
                  OFFSET 28.7848 1.52588e-005 0
                  CHANNELS 3 Zrotation Xrotation Yrotation
                  JOINT RightHand
                  {
                    OFFSET 26.5688 1.52588e-005 0
                    CHANNELS 3 Zrotation Xrotation Yrotation
                    End Site
                    {
                      OFFSET 0 0 0
                    }
                  }
                }
              }
            }
            JOINT LeftShoulder
            {
              OFFSET 2.38034 -1.29275 -3.7523
              CHANNELS 3 Zrotation Xrotation Yrotation
              JOINT LeftArm
              {
                OFFSET 16.3182 6.10351e-005 0
                CHANNELS 3 Zrotation Xrotation Yrotation
                JOINT LeftForeArm
                {
                  OFFSET 27.0901 0 0
                  CHANNELS 3 Zrotation Xrotation Yrotation
                  JOINT LeftHand
                  {
                    OFFSET 24.5451 1.52588e-005 0
                    CHANNELS 3 Zrotation Xrotation Yrotation
                    End Site
                    {
                      OFFSET 0 0 0
                    }
                  }
                }
              }
            }
            JOINT Neck
            {
              OFFSET 5.0226 -0.0266342 0
              CHANNELS 3 Zrotation Xrotation Yrotation
              JOINT Head
              {
                OFFSET 6.69364 2.86102e-005 0
                CHANNELS 3 Zrotation Xrotation Yrotation
                End Site
                {
                  OFFSET 0 0 0
                }
              }
            }
          }
        }
      }
    }
  }
}
MOTION
Frames:	15
Frame Time:	0.0416667
-67.1779 83.5154 131.142 -67.4978 -57.4952 -87.5292 179.2 19.5879 88.7494 -46.5522 28.5554 5.44972 66.8638 5.35683 9.74638 66.6975 -8.86996 11.9752 174.545 57.7038 89.7072 -108.497 -16.8087 -3.94055 42.4842 8.55532 14.3608 36.359 -1.14592 -1.5304 -0.789597 10.0997 -89.1352 6.70392 -1.20915 1.77636 -4.96745 -1.12979 1.82783 -27.5039 -1.68724 1.33087 -7.49127 -1.68723 1.33088 100.091 -54.3883 -85.2379 29.483 -3.78515 12.6839 -5.93469 -29.886 -20.3393 -2.85712 -0.105595 -2.56658 -88.6138 -49.3221 80.462 1.75163 -9.00005 -51.7426 4.51217 -9.46588 -67.0447 18.0924 -1.20315 -10.519 25.0461 -3.87623 0.0760037 -2.94739 -3.75683 -1.68191 
-89.6302 89.9105 153.219 -69.8242 -49.6263 -79.9262 -178.258 -5.38818 93.1581 -35.1931 29.068 10.7803 41.097 -5.91466 -2.42401 61.1251 -8.39406 7.96173 176.944 60.7662 93.7919 -59.2367 -14.2491 -0.00942377 52.7889 5.42378 11.4261 44.585 -2.16971 3.92417 -1.19831 9.72414 -89.9704 7.42711 -2.37976 0.170667 -4.24173 -2.36994 0.275284 -26.7935 -2.32097 -0.552836 -6.78086 -2.32097 -0.552843 96.7097 -49.8533 -90.6869 32.3417 -3.66409 34.8041 -2.44929 -16.6278 -21.9533 -1.9725 -0.0252867 -5.00432 -85.1228 -48.2597 85.594 1.99656 -12.519 -37.6923 5.91977 -3.56963 -86.4582 21.3098 -0.90076 -8.23411 19.4741 1.1295 -7.74862 -3.86044 3.39159 9.98963 
-112.25 90.1066 175.422 -79.0388 -44.2636 -85.9138 177.362 -2.3394 92.7996 -82.663 14.6913 3.95096 40.5814 -5.52223 -0.843177 55.4966 -7.33778 6.48561 175.114 44.5201 93.2573 -28.2403 -10.7325 4.4163 43.9867 10.1539 13.0777 54.0733 -3.44357 1.84894 -1.08465 10.064 -89.9712 6.7474 -2.15427 0.142108 -4.92178 -2.14591 0.236828 -27.4708 -2.09734 -0.512203 -7.45811 -2.09732 -0.5122 97.5534 -52.5794 -89.1291 35.3739 -6.06857 31.5531 4.56891 5.11247 -25.5107 -1.2696 -0.0195235 -6.5006 -86.395 -53.2537 84.3885 -0.293208 3.06886 -26.4194 1.39684 -6.82165 -45.2839 17.5901 -1.28545 -11.1521 15.159 3.26175 -9.51348 -2.14724 5.91975 15.5875 
-134.487 85.7451 196.441 -82.8701 -38.9228 -81.3321 172.649 22.5816 102.051 -123.162 12.5425 -0.348985 43.6283 -3.77377 10.1421 47.1065 -5.8308 -2.44816 169.341 32.6 103.393 -52.4281 -17.596 7.92241 68.8044 -2.49137 5.66939 28.7608 0.133558 -1.95864 -0.505156 9.94908 -90.7998 6.95829 -1.35198 -1.51039 -4.71291 -1.41713 -1.44944 -27.2419 -0.835698 -1.84678 -7.22922 -0.835698 -1.84679 99.9346 -55.9735 -85.4095 27.9465 -10.1148 7.29384 13.2168 21.1973 -34.3131 -0.835189 -0.023319 -6.38759 -86.9378 -60.7123 84.6578 -6.8359 14.2915 -10.5058 2.02621 16.9771 -14.1522 8.44751 -0.162035 -5.4109 25.7709 5.70879 -8.2876 -11.2761 7.53683 13.7114 
-158.935 84.7872 218.452 -82.2363 -32.3356 -80.6469 167.893 49.6528 101.047 -106.382 10.4118 0.981494 51.8251 -0.518141 14.9592 46.6292 -5.56955 -1.20219 177.645 8.32113 88.3908 -44.0467 -17.1948 2.27215 72.5909 -3.54924 9.40482 46.1063 -2.25995 2.82277 1.04039 8.85528 -90.6778 9.19951 1.77094 -1.51912 -2.47138 1.70233 -1.59558 -25.0135 2.1458 -0.916582 -5.0009 2.14579 -0.916584 103.597 -51.1992 -79.9762 23.0454 -9.27013 -4.9253 7.78986 12.2846 -53.4227 -3.47015 -0.0705878 -9.21405 -88.7357 -56.4635 81.5384 -21.7448 19.7369 13.9833 1.25878 28.7963 -13.1243 6.58056 -0.173932 -5.44882 14.8588 2.5723 -4.09457 -2.96348 3.72947 8.28978 
-185.031 88.3967 240.412 -82.0486 -32.5242 -83.4634 178.139 46.0336 91.094 -40.3908 12.8911 2.94248 45.5172 -4.27747 7.78802 50.7977 -7.24074 -4.04939 178.487 -13.122 95.2452 -32.4847 -14.903 -2.99727 39.7073 10.7087 16.3437 37.0382 -0.78117 -2.93585 2.15092 8.56814 -90.6164 9.76167 4.00787 -1.52458 -1.9042 3.9369 -1.69972 -24.4884 4.28046 -0.247498 -4.47571 4.28046 -0.247512 107.993 -37.2583 -71.2903 41.2819 8.03984 3.52003 -9.14835 -0.363438 -89.029 8.84574 1.23324 5.60335 -90.6446 -55.0228 78.5936 -20.9688 21.4093 19.5261 4.5223 17.9423 -22.1947 5.62445 -0.23671 -6.47306 14.5085 -0.824284 13.5881 -6.54694 -4.05055 -9.36068 
-209.175 86.5206 261.255 -89.5763 -33.6358 -85.3875 -171.588 37.1352 87.0026 -32.8859 10.9271 -2.72259 49.4274 -4.258 12.9474 33.2517 -0.89304 -6.78389 177.18 -3.45726 91.4365 -81.1748 -13.9515 -4.00682 44.6527 7.14648 10.7687 27.4049 0.703241 -3.92612 2.99921 10.1608 -91.7095 6.62216 5.26308 -3.56579 -5.04365 5.10116 -3.79414 -27.6513 6.09065 -1.81541 -7.63865 6.09064 -1.81541 112.925 -31.7858 -60.7769 46.5976 14.8137 -5.46627 -16.1176 -1.72335 -73.9409 9.95388 1.09307 6.97628 -97.4265 -63.1501 71.3628 -3.01655 12.348 -1.50914 5.79566 6.07696 -26.868 5.76483 -0.428888 -9.12393 22.4572 1.02217 40.0852 -11.6184 -10.6829 -29.9455 
-231.946 81.9035 280.265 -97.5845 -46.1675 -100.594 -174.594 21.3921 72.596 -58.3156 21.5598 -2.37531 68.7175 11.6459 33.4396 42.8345 -4.35003 -2.3776 177.021 25.1628 81.0522 -108.655 -6.94994 -4.26702 51.1953 2.39708 3.84013 40.8546 -1.71862 -5.04518 1.46883 12.1607 -92.5287 2.57567 1.95137 -4.94306 -9.10371 1.73223 -5.02387 -31.5939 3.34558 -4.13022 -11.5812 3.34557 -4.13023 112.635 -18.3109 -55.4574 61.2524 16.6512 -17.5967 -23.4443 -15.1325 -37.0703 6.14403 0.53933 3.76976 -112.304 -76.0476 57.6838 3.92983 -8.56776 -43.1973 6.62808 3.72151 -21.4534 10.5438 -0.658687 -9.12626 33.7801 8.6421 67.9472 -20.4121 -16.3814 -44.5948 
-253.961 83.9231 297.439 -121.879 -51.2532 -126.142 178.269 -7.421 74.0527 -54.957 24.7828 1.39395 62.2034 6.43768 18.1027 53.4851 -7.65284 0.296243 -179.055 33.7631 70.3644 -79.3232 -10.8866 -5.59815 54.35 4.48006 8.16589 55.654 -4.06599 -3.27836 0.199748 12.9128 -94.7708 0.884738 -1.40073 -9.27172 -10.8184 -1.8052 -9.20203 -33.0922 1.43666 -9.26623 -13.0795 1.43667 -9.26625 101.934 26.4648 -54.4292 93.8169 19.195 -8.42401 -37.0121 -24.2816 -6.74711 15.7549 -2.30693 -16.7758 -133.933 -81.0713 36.6332 -7.91712 -2.51587 -60.0902 7.46931 1.21722 -38.9882 9.8843 -1.0855 -13.764 19.6152 -7.00464 96.2016 0.0327758 -40.0289 -46.3272 
-277.683 84.7588 315.764 -128.653 -50.572 -143.18 171.319 -17.4327 68.313 -65.0591 17.3084 2.00833 54.7561 0.193728 11.0503 50.2126 -6.12454 2.73175 174.019 27.6079 61.0518 -15.4182 11.024 -4.86446 29.1468 6.97213 40.9747 12.6034 1.11125 2.92845 2.17836 11.1734 -99.149 4.32646 0.63665 -17.9304 -7.46466 -0.141911 -17.9407 -29.1052 5.92514 -16.9666 -9.09257 5.92513 -16.9667 147.578 82.4064 -138.456 119.486 25.0872 21.4296 -16.7458 64.6045 0.837033 45.3428 -8.1918 -20.7534 -137.907 -60.8719 20.8897 -44.7545 15.2091 -54.0474 11.6582 -7.61385 -80.1287 6.29401 -0.956528 -15.6014 16.7846 -48.5288 113.631 -9.56187 -67.228 -51.4804 
-301.529 73.7398 335.367 -119.443 -51.9655 -147.556 175.238 -8.13269 64.1391 -94.8096 3.35972 -0.444127 45.2084 -4.94007 2.2827 95.402 -24.2821 -5.00385 -173.36 45.684 51.1363 2.89801 47.2489 -13.9161 10.4235 0.723371 64.6305 -25.55 15.2831 -9.09952 2.54006 10.6025 -99.3442 5.39943 1.21501 -18.3836 -6.40027 0.418641 -18.4177 -28.0015 6.60286 -17.2368 -7.9888 6.60286 -17.2368 175.64 65.0925 161.274 143.602 12.942 19.2154 170.078 77.1944 -179.976 71.1312 39.527 47.7739 -127.584 -46.7701 24.4905 -80.4304 8.33795 -41.1374 5.72497 -1.61457 -91.9155 7.9993 0.134607 -1.88959 22.1577 -53.3452 126.003 -36.3293 -68.3415 -72.7666 
-323.75 59.9369 354.472 -106.456 -51.5073 -145.247 168.884 -13.1995 57.8762 -103.302 8.47531 1.69122 22.0272 -16.1758 -11.5529 111.78 -49.4061 -29.0069 -153.34 63.4409 39.4409 1.14377 36.5853 -6.08958 9.74082 0.528174 53.3509 -26.0653 18.4429 -13.3678 2.55258 10.8905 -98.4326 4.91505 1.64853 -16.5742 -6.86038 0.927693 -16.6285 -28.6541 6.49614 -15.3676 -8.64148 6.49615 -15.3676 175.355 60.1473 152.595 148.346 8.06067 17.019 163.906 86.1186 -179.874 64.4792 52.2034 70.2899 -121.393 -40.2818 28.1718 -89.0675 27.7172 -43.8499 20.4259 -1.51094 -37.8841 9.16443 -1.24679 -13.7243 21.9267 -52.8944 127.682 -46.1431 -60.3771 -90.7273 
-343.141 53.4558 371.29 -98.5232 -51.1706 -145.561 157.842 -26.2692 51.3178 -98.3552 19.4889 4.28514 25.591 -12.1202 -12.0835 114.932 -55.3865 -32.8651 -138.129 73.9899 28.9658 3.05269 -42.2998 4.17676 16.1054 12.8784 29.7974 -11.7929 13.604 -13.8147 2.32248 11.0702 -97.4948 4.58215 1.59247 -14.7082 -7.17152 0.950942 -14.7624 -29.1239 5.89853 -13.5892 -9.11128 5.89853 -13.5892 -177.481 59.8524 146.313 146.473 8.8026 17.024 -24.1766 85.7815 -0.198206 72.0057 54.3202 64.7738 -117.984 -42.655 34.3788 -62.8371 54.6014 -67.8342 -2.68098 3.46204 3.20226 -15.6309 1.60986 -16.6301 16.2889 -53.3969 122.882 -38.358 -55.576 -99.6609 
-360.838 52.0345 386.618 -93.0634 -50.4652 -145.999 145.214 -36.1471 44.4368 -83.9726 35.794 4.19446 21.2641 -5.00183 -9.65763 118.471 -57.9882 -32.5692 -131.299 80.6369 25.146 165.075 -58.1073 162.636 17.0059 29.4331 14.6029 1.52374 11.3872 -18.8083 1.69076 11.1195 -95.6986 4.5784 1.05524 -11.1989 -7.13987 0.564246 -11.2338 -29.3389 4.35569 -10.3806 -9.32627 4.35569 -10.3806 -148.294 69.0696 138.644 138.309 7.93578 15.3229 135.586 71.1858 -179.931 82.7533 52.9358 53.3311 -114.676 -46.206 41.0943 -85.174 53.74 -43.8369 -7.79681 30.817 -0.0136467 -16.0532 4.5779 -41.7572 5.02418 -51.7472 109.853 -25.9217 -52.6256 -102.484 
-376.949 52.2984 400.422 -89.3004 -49.7062 -146.63 128.335 -42.3495 34.3827 -59.7277 53.4785 -0.82765 12.3116 -2.4452 -11.3132 119.648 -59.6457 -33.3864 -134.378 84.9966 29.4099 167.48 -40.4091 161.141 11.8578 31.4216 17.8129 2.08108 11.6146 -19.8984 1.50446 11.0718 -95.0029 4.66617 0.96296 -9.82332 -7.04168 0.531829 -9.85574 -29.3158 3.85877 -9.09128 -9.30315 3.85877 -9.09125 -141.006 70.3239 135.235 136.097 9.11272 15.132 130.94 64.4442 -179.946 85.6049 52.5687 50.5562 -112.409 -46.7686 44.5533 -112.079 37.3508 -21.5229 1.65178 67.4691 0.0066705 -8.26631 2.76414 -56.0236 -27.6297 -46.7944 83.2957 11.4335 -56.4291 -97.2716 
